<?xml version="1.0" standalone="no"?>
<!DOCTYPE svg PUBLIC "-//W3C//DTD SVG 20010904//EN"
 "http://www.w3.org/TR/2001/REC-SVG-20010904/DTD/svg10.dtd">
<svg version="1.0" xmlns="http://www.w3.org/2000/svg"
 width="807.000000pt" height="632.000000pt" viewBox="0 0 807.000000 632.000000"
 preserveAspectRatio="xMidYMid meet">
<metadata>
Created by potrace 1.15, written by Peter Selinger 2001-2017
</metadata>
<g transform="translate(0.000000,632.000000) scale(0.100000,-0.100000)"
fill="#000000" stroke="none">
<path d="M2000 5718 c0 -198 -28 -935 -50 -1307 -11 -190 -18 -346 -16 -348 2
-3 62 -4 132 -4 l129 0 7 238 c3 131 9 316 13 411 l7 172 523 0 523 0 -4 -142
c-4 -129 -13 -301 -31 -583 l-6 -100 134 2 134 2 7 273 c13 531 46 1289 63
1456 l5 52 -133 0 -134 0 -13 -390 -13 -390 -524 0 -523 0 0 22 c0 29 28 615
34 696 l4 62 -134 0 -134 0 0 -122z"/>
<path d="M565 5027 c-3 -34 -26 -357 -51 -717 -54 -793 -242 -3026 -284 -3380
-16 -140 -30 -263 -30 -272 0 -17 20 -18 280 -18 l280 0 0 71 c0 232 32 771
120 2014 95 1340 128 1745 140 1745 3 0 48 -130 100 -288 53 -158 245 -732
427 -1277 183 -544 409 -1235 503 -1535 94 -300 185 -587 201 -638 l31 -92
310 2 310 3 117 290 c64 160 425 1030 801 1934 l685 1644 3 -309 c3 -341 -53
-3124 -68 -3379 -5 -88 -10 -166 -10 -172 0 -10 66 -13 295 -13 l295 0 0 1048
c0 1052 7 1615 35 2577 8 286 15 588 15 672 l0 152 -429 0 -428 0 -83 -227
c-51 -141 -230 -567 -474 -1127 -216 -495 -534 -1239 -707 -1652 -173 -414
-315 -750 -316 -745 -69 235 -559 1727 -737 2240 -268 775 -370 1090 -437
1344 l-43 167 -422 0 -422 0 -7 -62z"/>
<path d="M5410 2850 l0 -2220 150 0 150 0 0 245 0 245 140 0 140 0 0 -245 0
-245 590 0 590 0 0 245 0 245 140 0 140 0 0 -245 0 -245 155 0 155 0 0 2220 0
2220 -155 0 -155 0 0 -245 0 -245 -140 0 -140 0 0 245 0 245 -590 0 -590 0 0
-245 0 -245 -140 0 -140 0 0 245 0 245 -150 0 -150 0 0 -2220z m580 980 l0
-240 -140 0 -140 0 0 240 0 240 140 0 140 0 0 -240z m1460 0 l0 -240 -140 0
-140 0 0 240 0 240 140 0 140 0 0 -240z m-1460 -980 l0 -240 -140 0 -140 0 0
240 0 240 140 0 140 0 0 -240z m1460 0 l0 -240 -140 0 -140 0 0 240 0 240 140
0 140 0 0 -240z m-1460 -990 l0 -240 -140 0 -140 0 0 240 0 240 140 0 140 0 0
-240z m1460 0 l0 -240 -140 0 -140 0 0 240 0 240 140 0 140 0 0 -240z"/>
</g>
</svg>
